<svg xmlns="http://www.w3.org/2000/svg" version="1.1" xmlns:xlink="http://www.w3.org/1999/xlink">
    <symbol id="delete" viewBox="0 0 100 100">
        <path d="M85.7,14.3c-2.3-2.3-6.1-2.3-8.5,0L50,41.5L22.7,14.3c-2.3-2.3-6.1-2.3-8.5,0c-2.3,2.3-2.3,6.1,0,8.5L41.5,50L14.3,77.3   c-2.3,2.3-2.3,6.1,0,8.5c1.2,1.2,2.7,1.8,4.2,1.8s3.1-0.6,4.2-1.8L50,58.5l27.3,27.3c1.2,1.2,2.7,1.8,4.2,1.8s3.1-0.6,4.2-1.8   c2.3-2.3,2.3-6.1,0-8.5L58.5,50l27.3-27.3C88.1,20.4,88.1,16.6,85.7,14.3z"></path>
    </symbol>
    <symbol id="svgicon-tabs" width="21px" height="16px" viewBox="0 0 21 16">
        <defs>
            <linearGradient x1="100%" y1="112.3122%" x2="100%" y2="25.0427246%" id="linearGradient-1">
                <stop stop-color="#FFFFFF" stop-opacity="0" offset="0%"></stop>
                <stop stop-color="#979797" offset="100%"></stop>
            </linearGradient>
            <linearGradient x1="5.82953559%" y1="100%" x2="5.82953542%" y2="42.2055845%" id="linearGradient-2">
                <stop stop-color="#FFFFFF" stop-opacity="0" offset="0%"></stop>
                <stop stop-color="#979797" offset="100%"></stop>
            </linearGradient>
        </defs>
        <g id="Page-2" stroke="none" stroke-width="1" fill="none" fill-rule="evenodd" stroke-linecap="square">
            <g id="Group-8" transform="translate(0.500000, 0.500000)">
                <path d="M9.5,5.5 L17.500385,5.5 C18.6047419,5.5 19.5,6.38670635 19.5,7.49810135 L19.5,13.5" id="Line" stroke="url(#linearGradient-1)"></path>
                <path d="M0.5,15 L0.5,5.55555556 L0.5,2.00568305 C0.5,0.897974889 1.39585781,0 2.4973917,0 L7.5026083,0 C8.60573727,0 9.5,0.892596112 9.5,2.00568305 L9.5,5.55555556" id="Line" stroke="url(#linearGradient-2)"></path>
            </g>
        </g>
    </symbol>
</svg>