<?xml version="1.0" encoding="UTF-8" standalone="no"?>
<svg width="16px" height="16px" viewBox="0 0 16 16" version="1.1" xmlns="http://www.w3.org/2000/svg" xmlns:xlink="http://www.w3.org/1999/xlink">
    <!-- Generator: Sketch 40.3 (33839) - http://www.bohemiancoding.com/sketch -->
    <title>logo16x</title>
    <desc>Created with Sketch.</desc>
    <defs>
        <linearGradient x1="0%" y1="50%" x2="100%" y2="50%" id="linearGradient-1">
            <stop stop-color="#D60000" offset="0%"></stop>
            <stop stop-color="#C1165B" offset="46.1303711%"></stop>
            <stop stop-color="#AC0000" offset="100%"></stop>
        </linearGradient>
    </defs>
    <g id="Logo" stroke="none" stroke-width="1" fill="none" fill-rule="evenodd">
        <rect id="Rectangle-3" fill="url(#linearGradient-1)" x="0" y="0" width="16" height="16" rx="3"></rect>
        <path d="M7.92881356,11.7316715 L7.92881356,12.0677966 L9.44745763,12.0677966 L9.44745763,7.13220339 L7.92881356,7.13220339 L7.92881356,8.3700234 C7.60937025,8.157643 7.22591585,8.03389831 6.81355932,8.03389831 C5.69962906,8.03389831 4.79661017,8.9369172 4.79661017,10.0508475 C4.79661017,11.1647777 5.69962906,12.0677966 6.81355932,12.0677966 C7.22591585,12.0677966 7.60937025,11.9440519 7.92881356,11.7316715 Z M12.4847458,8.12744091 C12.9082282,8.102876 13.2440678,7.75167472 13.2440678,7.3220339 C13.2440678,6.89239307 12.9082282,6.54119179 12.4847458,6.51662688 L12.4847458,6.51525424 L11.3457627,6.51525424 L11.3457627,10.8813559 L12.4847458,10.8813559 L12.4847458,10.8632986 C12.5461991,10.8751498 12.6096629,10.8813559 12.6745763,10.8813559 C13.2249889,10.8813559 13.6711864,10.4351584 13.6711864,9.88474576 C13.6711864,9.33433316 13.2249889,8.88813559 12.6745763,8.88813559 C12.6096629,8.88813559 12.5461991,8.89434169 12.4847458,8.9061929 L12.4847458,8.12744091 Z M12.9118644,12.0605445 L12.9118644,12.0677966 L10.0644068,12.0677966 L10.0644068,6.68135593 L10.0644068,5.51864407 L12.9118644,5.51864407 L12.9118644,5.5194848 C12.9276202,5.51892576 12.9434408,5.51864407 12.959322,5.51864407 C13.7456257,5.51864407 14.3830508,6.20918793 14.3830508,7.06101695 C14.3830508,7.55906367 14.1651472,8.00197509 13.8269869,8.28396698 C14.5163662,8.58316539 15,9.28286133 15,10.0983051 C15,11.1860252 14.1394761,12.0677966 13.0779661,12.0677966 C13.0220081,12.0677966 12.9666087,12.0653462 12.9118644,12.0605445 Z M1,4 L9.44745763,4 L9.44745763,5.32881356 L1,5.32881356 L1,4 Z M2.66101695,5.32881356 L4.17966102,5.32881356 L4.17966102,12.0677966 L2.66101695,12.0677966 L2.66101695,5.32881356 Z M5.03389831,5.94576271 L8.85222538,5.94576271 C9.18096307,5.94576271 9.44745763,6.22093816 9.44745763,6.53898305 L9.44745763,7.13220339 L5.03389831,7.13220339 L5.03389831,5.94576271 Z M7.05084746,10.7864407 C7.4833145,10.7864407 7.83389831,10.4358569 7.83389831,10.0033898 C7.83389831,9.57092279 7.4833145,9.22033898 7.05084746,9.22033898 C6.61838042,9.22033898 6.26779661,9.57092279 6.26779661,10.0033898 C6.26779661,10.4358569 6.61838042,10.7864407 7.05084746,10.7864407 Z" id="Combined-Shape" fill="#FFFFFF"></path>
    </g>
</svg>